<svg class="svg-icon" style="width: 1em; height: 1em;vertical-align: middle;fill: currentColor;overflow: hidden;" viewBox="0 0 1024 1024" version="1.1" xmlns="http://www.w3.org/2000/svg"><path d="M512 853.333333c-25.6 0-42.666667-17.066667-42.666667-42.666666V213.333333c0-25.6 17.066667-42.666667 42.666667-42.666666s42.666667 17.066667 42.666667 42.666666v597.333334c0 25.6-17.066667 42.666667-42.666667 42.666666z"  /><path d="M512 853.333333c-12.8 0-21.333333-4.266667-29.866667-12.8l-298.666666-298.666666c-17.066667-17.066667-17.066667-42.666667 0-59.733334s42.666667-17.066667 59.733333 0l268.8 268.8 268.8-268.8c17.066667-17.066667 42.666667-17.066667 59.733333 0s17.066667 42.666667 0 59.733334l-298.666666 298.666666c-8.533333 8.533333-17.066667 12.8-29.866667 12.8z"  /></svg>